<svg enable-background="new 0 0 512 512" viewBox="0 0 512 512" xmlns="http://www.w3.org/2000/svg"><g id="Layer_1" display="none"><g display="inline" fill="none" stroke="#6d6e71" stroke-miterlimit="10" stroke-width=".284"><path d="m0 0h512v512h-512z"/><circle cx="256" cy="256" r="256"/><path d="m75 75h362v362h-362z"/><path d="m128 0h256v512h-256z"/><path d="m256 0v512"/><path d="m0 128h512v256h-512z"/><path d="m0 256h512"/><path d="m512 0-512 512"/><path d="m0 0 512 512"/><circle cx="256" cy="256" r="181.3"/><circle cx="256" cy="256" r="128"/><circle cx="256" cy="256" r="64"/></g></g><g id="Layer_2"><g><path d="m341.6 224.8c-.8 0-1.4.6-1.4 1.4s.6 1.4 1.4 1.4 1.4-.6 1.4-1.4-.7-1.4-1.4-1.4z"/><path d="m291.7 296.9v-15.4c0-2.5-2.1-4.6-4.6-4.6h-62.2c-2.5 0-4.6 2.1-4.6 4.6v15.4c0 19.7 16 35.7 35.7 35.7 19.7 0 35.7-16 35.7-35.7z"/><path d="m170.4 224.8c-.8 0-1.4.6-1.4 1.4s.6 1.4 1.4 1.4 1.4-.6 1.4-1.4-.6-1.4-1.4-1.4z"/><path d="m136.3 78.1c-75 6.2-108.5 26.4-123.4 43.8-13 15-13.9 30.2-12.3 40.3 6.6 43.5 17.7 104.5 23.7 137 .2 1 .8 1.4 1.3 1.6s1.3.3 2.1-.3c6.8-5.5 11.9-9.1 17.4-13 5.1-3.6 10.4-7.3 17.6-13.1 0-1.7 0-3.4 0-5.2 0-43.5 12.3-95.4 32.2-135.4 11.9-24.2 26-43 41.4-55.7z"/><path d="m376.1 78.1c15.3 12.6 29.2 31 41 54.7 19.9 39.7 32.2 92 32.2 136.4v7.1c6.9 5.4 12.1 8.6 17.1 11.7 5.3 3.3 10.8 6.7 17.9 12.4.8.6 1.5.5 2.1.3.5-.2 1.2-.6 1.3-1.6 6-32.5 17.1-93.5 23.7-137 1.5-10.1.6-25.3-12.3-40.3-14.9-17.3-48.3-37.5-123-43.7z"/><path d="m326.1 76.1h-70.1-70.1c-37.3 0-63.2 41-75.4 65.4-18.7 37.8-30.4 86.7-30.4 127.6 0 103.3 8.5 166.7 175.8 166.7s175.8-63.3 175.8-166.7c0-41.8-11.6-91.1-30.4-128.5-11.9-24-37.7-64.5-75.2-64.5zm-174.7 150.1c0-10.5 8.5-19 19-19s19 8.5 19 19-8.5 19-19 19c-10.4 0-19-8.5-19-19zm168.5 159.3c-31.4 0-51.6-9.7-63.9-19.2-12.3 9.5-32.5 19.2-63.9 19.2-4.9 0-8.8-3.9-8.8-8.8s3.9-8.8 8.8-8.8c25.2 0 41.4-7.1 51.3-14.1-2.3-3-3.4-5.1-3.6-5.4-.1-.2-.2-.5-.3-.7-21.3-7-36.8-27.1-36.8-50.7v-15.4c0-12.2 10-22.2 22.2-22.2h62.2c12.2 0 22.2 10 22.2 22.2v15.4c0 23.6-15.5 43.7-36.8 50.7-.1.2-.2.5-.3.7-.2.3-1.3 2.4-3.6 5.4 9.9 7 26 14.1 51.3 14.1 4.9 0 8.8 3.9 8.8 8.8-.1 4.8-4 8.8-8.8 8.8zm21.7-140.3c-10.5 0-19-8.5-19-19s8.5-19 19-19 19 8.5 19 19-8.6 19-19 19z"/></g></g></svg>