<svg id="Glyph" height="512" viewBox="0 0 64 64" width="512" xmlns="http://www.w3.org/2000/svg"><path d="m17.61 50.9a1.689 1.689 0 0 0 .34-.1l-.65-4.77a5.154 5.154 0 0 0 -1.58-2.97 10.367 10.367 0 0 1 -1.8-2.31 47.485 47.485 0 0 1 -.52 8.95c-.21 1.4-1.97 1.3-2.13 1.29a2.5 2.5 0 0 0 .26 4.98h3.91a2.992 2.992 0 0 1 -.8-2.13 3.038 3.038 0 0 1 2.97-2.94z"/><path d="m53.57 51.32-.14-1.96a1.688 1.688 0 0 0 -1-1.41c-2.23-1.03-5.2-2.85-6.76-5.7a4.471 4.471 0 0 0 -3.91-2.29c.98 2.3 3.47 6.94 8.22 8.95a.623.623 0 0 1 .23.55v1.76a.781.781 0 0 1 -.78.78h-.67a1.985 1.985 0 0 0 0 3.97h2.93a2.808 2.808 0 0 1 -.68-1.83 2.842 2.842 0 0 1 2.56-2.82z"/><path d="m62.476 32.259c-.8-2.476-2.046-4.147-3.7-4.964a5.343 5.343 0 0 0 -3.508-.418 11.331 11.331 0 0 0 -12.806-4.7c-5.39 1.5-14.18.27-15.16-.68a13.318 13.318 0 0 1 -4.26-7.3c-.525-3.324-3.747-6.423-6.77-6.16-2.26.1-4.14 1.18-6.69 3.84-1.55 1.61-4.5 2.42-6.13 2.76a2.417 2.417 0 0 0 -1.91 2.79 5.429 5.429 0 0 0 3.51 4.49 24.175 24.175 0 0 0 6.55 1.35 52.594 52.594 0 0 1 1.45 6.92c-.29 3.03-.24 8.65 3.37 12.16a6.1 6.1 0 0 1 1.87 3.54l.67 4.9a.862.862 0 0 1 -.19.64 1.939 1.939 0 0 1 -1.09.47 2.033 2.033 0 0 0 -2.04 1.96 2.055 2.055 0 0 0 2.04 2.11h3.11a3.134 3.134 0 0 0 2.97-2.12 18.3 18.3 0 0 0 .74-8.88 3.324 3.324 0 0 1 2.05-3.64c.06-.03 5.68-2.37 15.17-2.37a5.488 5.488 0 0 1 4.83 2.81c1.43 2.62 4.21 4.31 6.29 5.27a2.683 2.683 0 0 1 1.59 2.25l.16 2.21a.762.762 0 0 1 -.75.81 1.83 1.83 0 0 0 0 3.66h2.78a2.657 2.657 0 0 0 2.66-2.65v-6.337a6.874 6.874 0 0 0 -.5-2.65c-1.43-3.42-1.45-10.31-1.45-10.4a13.152 13.152 0 0 0 -1.532-6.13 4.354 4.354 0 0 1 2.544.4c1.4.7 2.466 2.165 3.177 4.366a.5.5 0 0 0 .952-.307zm-49.208-18.348-.513.512a.5.5 0 0 1 -.707-.707l.513-.512a.5.5 0 0 1 .707.707zm9.094 9.628a1.994 1.994 0 0 1 -1.254 1.633c-3.25 1.137-6.46-1.282-5.889-6.141a.5.5 0 1 1 .993.12c-.634 3.231 1.751 6.138 4.481 5.111a1.028 1.028 0 0 0 .673-.806c.191-2.291-2.282-7.268-2.306-7.318a.5.5 0 0 1 .894-.448c.107.215 2.622 5.279 2.408 7.849z"/></svg>