<svg id="Layer_1" enable-background="new 0 0 512 512" viewBox="0 0 512 512" xmlns="http://www.w3.org/2000/svg"><path d="m272.142 239.877c25.95 25.945 39.652 62.674 38.573 103.424-.985 39.23-15.626 80.567-41.154 116.39-15.392 21.539-38.62 33.819-63.913 33.819-.422 0-.845 0-1.267-.009-26.513-.422-48.099-14.04-59.173-37.353-9.15-19.356-21.633-36.977-37.024-52.36-15.345-15.368-32.989-27.827-52.322-37.02-23.322-11.061-36.931-32.628-37.353-59.169-.422-25.781 11.919-49.521 33.787-65.142 35.852-25.546 77.146-40.178 116.423-41.187 40.73-1.04 77.473 12.662 103.423 38.607zm-192.161-75.738c7.039 3.942 14.876 5.903 22.994 5.903 7.931 0 16.143-1.854 24.354-5.579 15.298-6.964 28.719-19.822 37.822-36.222 9.15-16.391 12.998-34.603 10.84-51.271-2.346-18.081-11.309-32.299-25.246-40.061-13.937-7.761-30.783-7.869-47.348-.319-15.298 6.96-28.765 19.831-37.869 36.222-9.104 16.386-12.952 34.598-10.793 51.266 2.3 18.081 11.262 32.304 25.246 40.061zm187.703 12.342c4.599-.01 9.432-.46 14.359-1.38 19.897-3.731 39.887-14.819 56.311-31.243 16.377-16.41 27.499-36.41 31.206-56.306 4.083-21.633-.892-40.722-13.937-53.753-12.999-13.031-32.098-17.987-53.73-13.927-19.896 3.721-39.887 14.819-56.311 31.229s-27.499 36.409-31.253 56.311c-4.035 21.628.892 40.718 13.938 53.758 10.089 10.06 23.744 15.311 39.417 15.311zm207.412 184.779c-7.743-13.937-22.008-22.909-40.075-25.241-16.659-2.149-34.866 1.689-51.243 10.802-16.424 9.118-29.282 22.572-36.227 37.869-7.555 16.579-7.461 33.402.329 47.348 7.743 13.942 21.961 22.909 40.027 25.241 3.051.389 6.101.582 9.245.582 13.983 0 28.625-3.923 42.045-11.38 16.377-9.122 29.235-22.571 36.227-37.874 7.555-16.579 7.415-33.397-.328-47.339 0 .002 0 .002 0-.008zm3.097-204.901c-12.999-13.031-32.098-17.977-53.73-13.928-19.896 3.731-39.887 14.819-56.311 31.229-16.424 16.419-27.499 36.419-31.252 56.321-4.036 21.628.892 40.717 13.937 53.749 10.089 10.07 23.744 15.312 39.417 15.312 4.599 0 9.432-.46 14.312-1.38 19.896-3.73 39.934-14.819 56.357-31.229 16.377-16.424 27.499-36.424 31.206-56.32 4.036-21.633-.891-40.713-13.936-53.754z"/></svg>