<svg id="a8a614d5-ba56-438c-b254-83355903d75e" viewBox="0 0 64 64" xmlns="http://www.w3.org/2000/svg" data-name="glyph"><path d="m59.68062 19.54655c-2.55522-6.55865-9.77192-6.23484-13.60662-4.75463a.888.888 0 0 1 -.64867-1.65317 17.55409 17.55409 0 0 1 5.3768-.96869c-.70208-2.16851-2.70173-6.89659-7.07435-7.94529-4.17906-1.1676-9.60714 2.604-8.85174 7.14551.62211 4.2125-.02671 7.58968-1.93745 10.0337-2.15074 2.75511-9.73159 10.32709-11.5891 11.58024a13.94224 13.94224 0 0 1 -9.98937 1.9019c-4.54112-.74606-8.31419 4.66788-7.14528 8.85178 1.05747 4.38144 5.79444 6.38109 7.95406 7.08323a17.8057 17.8057 0 0 1 .9598-5.38573.888.888 0 0 1 1.65307.6488 14.97573 14.97573 0 0 0 -.84434 6.02571 8.614 8.614 0 0 0 5.64349 7.59856 7.23224 7.23224 0 0 0 5.80346-.79988 8.11376 8.11376 0 0 0 3.66162-6.96765v-3.17279a10.14762 10.14762 0 0 1 2.995-7.24321l9.47388-9.47388a10.14772 10.14772 0 0 1 7.24321-2.995h3.17279c6.05349.01531 9.10939-5.50306 7.74974-9.50951z"/></svg>